<svg width="25" height="24" viewBox="0 0 25 24" fill="none" xmlns="http://www.w3.org/2000/svg">
<path d="M12.668 2.25385C8.94141 2.25385 5.91797 5.1315 5.91797 8.67573C5.91797 12.7539 10.418 19.2165 12.0703 21.4487C12.1389 21.5429 12.2288 21.6196 12.3327 21.6725C12.4365 21.7253 12.5514 21.7529 12.668 21.7529C12.7845 21.7529 12.8994 21.7253 13.0033 21.6725C13.1071 21.6196 13.197 21.5429 13.2656 21.4487C14.918 19.2175 19.418 12.7571 19.418 8.67573C19.418 5.1315 16.3945 2.25385 12.668 2.25385Z" stroke="#1E2E50" stroke-opacity="0.4" stroke-width="1.49999" stroke-linecap="round" stroke-linejoin="round"/>
<path d="M12.6689 11.2514C13.9116 11.2514 14.9189 10.2441 14.9189 9.00144C14.9189 7.75879 13.9116 6.75143 12.6689 6.75143C11.4263 6.75143 10.4189 7.75879 10.4189 9.00144C10.4189 10.2441 11.4263 11.2514 12.6689 11.2514Z" stroke="#1E2E50" stroke-opacity="0.4" stroke-width="1.49999" stroke-linecap="round" stroke-linejoin="round"/>
</svg>
